<?xml version="1.0" encoding="utf-8"?>
<!-- Generator: Adobe Illustrator 25.2.1, SVG Export Plug-In . SVG Version: 6.00 Build 0)  -->
<svg version="1.1" id="Capa_1" xmlns="http://www.w3.org/2000/svg" xmlns:xlink="http://www.w3.org/1999/xlink" x="0px" y="0px"
	 viewBox="0 0 512 512" style="enable-background:new 0 0 512 512;" xml:space="preserve">
<style type="text/css">
	.st0{fill:#BBBAB2;}
	.st1{fill:#D6D6D1;}
	.st2{fill:#8C8B85;}
	.st3{fill:#C9C8C1;}
	.st4{fill:#FF0C38;}
	.st5{fill:#D80027;}
	.st6{fill:#5EAC24;}
	.st7{fill:#3D9AE2;}
	.st8{fill:#4E901E;}
	.st9{fill:#A5001E;}
	.st10{fill:#F1F1F0;}
	.st11{fill:#E4E3E0;}
</style>
<polygon class="st0" points="79.5,225.1 134.2,109.1 230.6,215.9 "/>
<polygon class="st1" points="432.5,225.1 377.8,109.1 281.4,215.9 "/>
<circle class="st0" cx="134.5" cy="109.1" r="24.8"/>
<circle class="st0" cx="377.5" cy="109.1" r="24.8"/>
<path class="st2" d="M377.5,108.2c0-8.8,4.6-16.6,11.6-21c-3.5-1.8-7.4-2.9-11.6-2.9c-13.7,0-24.8,11.1-24.8,24.8
	c0,13.7,11.1,24.8,24.8,24.8c4.8,0,9.3-1.4,13.2-3.8C382.8,125.9,377.5,117.7,377.5,108.2z"/>
<path class="st2" d="M134.5,108.2c0-8.8,4.6-16.6,11.6-21c-3.5-1.8-7.4-2.9-11.6-2.9c-13.7,0-24.8,11.1-24.8,24.8
	c0,13.7,11.1,24.8,24.8,24.8c4.8,0,9.3-1.4,13.2-3.8C139.8,125.9,134.5,117.7,134.5,108.2z"/>
<rect x="46.3" y="299.3" class="st3" width="419.5" height="110.7"/>
<rect x="46.3" y="299.3" class="st1" width="101.3" height="110.7"/>
<path class="st3" d="M487.2,133.9c0.4,0-56.3,40-95.2,67.4c-20,14.1-47.5,9.9-62.4-9.5L256,96.1l-73.7,95.7
	c-14.9,19.4-42.4,23.5-62.4,9.5c-38.9-27.4-95.6-67.4-95.2-67.4C41,183.4,46.3,299.3,46.3,299.3h419.5
	C465.8,299.3,471,183.4,487.2,133.9z"/>
<path class="st1" d="M24.8,133.9C41,183.4,46.2,299.3,46.2,299.3h101.3c0,0-2-44.5-7.4-90.2c-7.1-0.9-14-3.5-20.2-7.9
	C81,173.8,24.3,133.9,24.8,133.9z"/>
<circle class="st1" cx="256" cy="96.1" r="24.8"/>
<circle class="st0" cx="24.8" cy="133.9" r="24.8"/>
<path class="st2" d="M24.8,133c0-8.8,4.6-16.6,11.6-21c-3.5-1.8-7.4-2.9-11.6-2.9C11.1,109.1,0,120.2,0,133.9s11.1,24.8,24.8,24.8
	c4.8,0,9.3-1.4,13.2-3.8C30.1,150.7,24.8,142.4,24.8,133z"/>
<path class="st0" d="M256,95.2c0-8.8,4.6-16.6,11.6-21c-3.5-1.8-7.4-2.9-11.6-2.9c-13.7,0-24.8,11.1-24.8,24.8s11.1,24.8,24.8,24.8
	c4.8,0,9.3-1.4,13.2-3.8C261.3,112.9,256,104.7,256,95.2z"/>
<circle class="st1" cx="487.2" cy="133.9" r="24.8"/>
<path class="st0" d="M487.2,133c0-8.8,4.6-16.6,11.6-21c-3.5-1.8-7.4-2.9-11.6-2.9c-13.7,0-24.8,11.1-24.8,24.8s11.1,24.8,24.8,24.8
	c4.8,0,9.3-1.4,13.2-3.8C492.6,150.7,487.2,142.4,487.2,133z"/>
<ellipse transform="matrix(0.1602 -0.9871 0.9871 0.1602 5.0053 431.353)" class="st4" cx="256" cy="212.7" rx="31.9" ry="31.9"/>
<path class="st5" d="M256,212.7c0-11.8,6.4-22.1,16-27.7c-4.7-2.7-10.1-4.3-16-4.3c-17.6,0-31.9,14.3-31.9,31.9s14.3,31.9,31.9,31.9
	c5.8,0,11.3-1.6,16-4.3C262.4,234.9,256,224.6,256,212.7z"/>
<circle class="st6" cx="256" cy="357.9" r="15.5"/>
<circle class="st7" cx="330.2" cy="357.9" r="15.5"/>
<circle class="st6" cx="404.3" cy="357.9" r="15.5"/>
<circle class="st8" cx="107.7" cy="357.9" r="15.5"/>
<circle class="st7" cx="181.8" cy="357.9" r="15.5"/>
<ellipse transform="matrix(0.995 -9.989972e-02 9.989972e-02 0.995 -21.8864 5.1711)" class="st5" cx="40.7" cy="221.1" rx="25.8" ry="31.9"/>
<path class="st9" d="M66.3,218.5c-1.8-17.5-14.7-30.6-28.8-29.2c-4.6,0.5-8.8,2.4-12.3,5.5c9.6,3.9,17.2,14.5,18.5,27.7
	c1.2,11.8-3,22.6-10.1,28.9c3.2,1.3,6.7,1.9,10.3,1.5C58,251.5,68.1,236.1,66.3,218.5z"/>
<ellipse transform="matrix(9.989975e-02 -0.995 0.995 9.989975e-02 204.2087 667.9799)" class="st4" cx="471.3" cy="221.1" rx="31.9" ry="25.8"/>
<path class="st5" d="M445.7,218.5c1.8-17.5,14.7-30.6,28.8-29.2c4.6,0.5,8.8,2.4,12.3,5.5c-9.6,3.9-17.2,14.5-18.5,27.7
	c-1.2,11.8,3,22.6,10.1,28.9c-3.2,1.3-6.7,1.9-10.3,1.5C454,251.5,443.9,236.1,445.7,218.5z"/>
<path class="st10" d="M463.1,323.4H48.9c-13.3,0-24.1-10.8-24.1-24.1l0,0c0-13.3,10.8-24.1,24.1-24.1h414.3
	c13.3,0,24.1,10.8,24.1,24.1l0,0C487.2,312.6,476.4,323.4,463.1,323.4z"/>
<path class="st11" d="M121.5,299.3L121.5,299.3c0-13.3,10.8-24.1,24.1-24.1H48.9c-13.3,0-24.1,10.8-24.1,24.1l0,0
	c0,13.3,10.8,24.1,24.1,24.1h96.7C132.3,323.4,121.5,312.6,121.5,299.3z"/>
<path class="st10" d="M463.1,440.7H48.9c-13.3,0-24.1-10.8-24.1-24.1l0,0c0-13.3,10.8-24.1,24.1-24.1h414.3
	c13.3,0,24.1,10.8,24.1,24.1l0,0C487.2,429.8,476.4,440.7,463.1,440.7z"/>
<path class="st11" d="M121.5,416.6L121.5,416.6c0-13.3,10.8-24.1,24.1-24.1H48.9c-13.3,0-24.1,10.8-24.1,24.1l0,0
	c0,13.3,10.8,24.1,24.1,24.1h96.7C132.3,440.7,121.5,429.8,121.5,416.6z"/>
</svg>
