<?xml version="1.0" encoding="utf-8"?>
<!-- Generator: Adobe Illustrator 25.2.1, SVG Export Plug-In . SVG Version: 6.00 Build 0)  -->
<svg version="1.1" id="Calque_1" xmlns="http://www.w3.org/2000/svg" xmlns:xlink="http://www.w3.org/1999/xlink" x="0px" y="0px"
	 viewBox="0 0 512 512" style="enable-background:new 0 0 512 512;" xml:space="preserve">
<style type="text/css">
	.st0{fill:#D79E7D;}
	.st1{fill:#C9896C;}
	.st2{fill:#F3BC9D;}
	.st3{fill:#BD7962;}
</style>
<path class="st0" d="M417.8,256.3c2.5,7.6,3.7,15.9,3.2,24.5c-1.9,33.8-30.4,61.4-64.2,62.3c-37.3,1-67.8-29-67.8-66
	c0-2.1,0.1-4.2,0.3-6.3c1.9-27,15.4-50.6,35.7-66c3.3-2.5,4-7.2,1.8-10.7L256,78.8l-70.9,115.1c-2.2,3.5-1.5,8.2,1.8,10.7
	c20.3,15.4,33.8,39.1,35.7,66c0.2,2.1,0.3,4.2,0.3,6.3c0,37.1-30.5,67-67.8,66c-33.8-0.9-62.3-28.5-64.2-62.3
	c-0.5-8.6,0.7-16.9,3.2-24.6c1-3,0.4-6.2-1.8-8.4l-75.9-78.1l24.8,256h429.4l24.8-256l-75.8,78.1
	C417.4,249.9,416.9,253.2,417.8,256.3z"/>
<path class="st1" d="M156.9,343c-36.5,0-66.1-29.6-66.1-66.1c0-7.3,1.2-14.2,3.3-20.8c1-3,0.4-6.2-1.8-8.5l-75.9-78.1l24.8,256
	h115.6V343z"/>
<g>
	<path class="st2" d="M495.5,169.6l-75.8,78.1c-2.1,2.2-2.9,5.4-1.9,8.3c2.6,7.7,3.8,16.1,3.3,24.8c-1.9,33.8-30.4,61.4-64.2,62.3
		c-37.3,1-67.8-29-67.8-66c0-2.1,0.1-4.2,0.3-6.3c1.9-27,15.4-50.6,35.7-66c3.3-2.5,4-7.2,1.8-10.7L256,78.8l-70.9,115.1
		c-2.2,3.5-1.5,8.2,1.8,10.7c20.3,15.4,33.8,39.1,35.7,66c0.2,2.1,0.3,4.2,0.3,6.3c0,37.1-30.5,67-67.8,66
		c-33.8-0.9-62.3-28.5-64.2-62.3c-0.5-8.6,0.7-16.9,3.2-24.6c1-3,0.4-6.2-1.8-8.4l-75.9-78.1l5.1,52.6l34.1,35.1
		c2.1,2.2,3.1,5.2,2.7,8.2c-0.3,2.9-0.5,5.8-0.6,8.8c-1.4,52.9,39.6,98,92.4,101.5c44.1,2.9,82.6-23.2,98.3-61c1.3-3,4.3-5,7.6-5
		c3.3,0,6.3,1.9,7.6,5c12.7,30.4,40.1,53.9,73.9,59.7c62.4,10.8,116.7-37.2,116.7-97.6c0-3.8-0.2-7.7-0.7-11.4c-0.3-3,0.6-6,2.8-8.2
		l34.1-35.1L495.5,169.6z M256,239.8c-3.5,0-6.5-2.2-7.7-5.4c-4.8-13.1-11.8-25.3-20.7-36.1c-2.2-2.7-2.5-6.4-0.7-9.3l23.9-38.9
		c2.3-3.8,7.9-3.8,10.2,0L285,189c1.8,2.9,1.5,6.7-0.7,9.3c-8.8,10.8-15.8,23-20.7,36.1C262.5,237.6,259.5,239.8,256,239.8z"/>
	<path class="st2" d="M479,458.6H33c-4.6,0-8.3-3.7-8.3-8.3v-16.5c0-4.6,3.7-8.3,8.3-8.3H479c4.6,0,8.3,3.7,8.3,8.3v16.5
		C487.2,454.9,483.5,458.6,479,458.6z"/>
	<path class="st2" d="M272.5,70.5c0,9.1-7.4,16.5-16.5,16.5s-16.5-7.4-16.5-16.5S246.9,54,256,54S272.5,61.4,272.5,70.5z"/>
</g>
<path class="st0" d="M264.3,78.8c-9.1,0-16.5-7.4-16.5-16.5c0-2.4,0.5-4.7,1.5-6.8c-5.7,2.6-9.7,8.4-9.7,15.1
	c0,9.1,7.4,16.5,16.5,16.5c6.7,0,12.5-4,15.1-9.7C269,78.2,266.7,78.8,264.3,78.8z"/>
<path class="st2" d="M512,169.6c0,9.1-7.4,16.5-16.5,16.5s-16.5-7.4-16.5-16.5s7.4-16.5,16.5-16.5S512,160.5,512,169.6z"/>
<path class="st0" d="M503.7,177.9c-9.1,0-16.5-7.4-16.5-16.5c0-2.4,0.5-4.7,1.5-6.8c-5.7,2.6-9.7,8.4-9.7,15.1
	c0,9.1,7.4,16.5,16.5,16.5c6.7,0,12.5-4,15.1-9.7C508.5,177.3,506.2,177.9,503.7,177.9z"/>
<path class="st3" d="M35.1,362.1l6.1,63.5h115.6C106.6,425.6,62,400.4,35.1,362.1z"/>
<path class="st1" d="M355.1,425.6h115.6l6.1-63.6C450,400.4,405.4,425.6,355.1,425.6z"/>
<path class="st1" d="M156.9,425.6h198.2c-35.5,0-68.2-12.5-93.8-33.4c-3.1-2.5-7.5-2.5-10.6,0C225.1,413.1,192.4,425.6,156.9,425.6z
	"/>
<path class="st0" d="M90.8,277c0-7.3,1.2-14.2,3.3-20.8c1-3,0.4-6.2-1.8-8.5l-75.9-78.1l5.1,52.6l37.5,38.6
	c-0.9,5.3-1.3,10.7-1.3,16.1c0,54.6,44.5,99.1,99.1,99.1v-33C120.4,343,90.8,313.5,90.8,277z"/>
<path class="st2" d="M33,169.6c0,9.1-7.4,16.5-16.5,16.5S0,178.7,0,169.6s7.4-16.5,16.5-16.5S33,160.5,33,169.6z"/>
<path class="st0" d="M24.8,177.9c-9.1,0-16.5-7.4-16.5-16.5c0-2.4,0.5-4.7,1.5-6.8C4,157.1,0,162.9,0,169.6
	c0,9.1,7.4,16.5,16.5,16.5c6.7,0,12.5-4,15.1-9.7C29.5,177.3,27.2,177.9,24.8,177.9z"/>
<path class="st0" d="M156.9,425.6H33c-4.6,0-8.3,3.7-8.3,8.3v16.5c0,4.6,3.7,8.3,8.3,8.3H479c4.6,0,8.3-3.7,8.3-8.3v-8.3H173.4
	C164.3,442.1,156.9,434.7,156.9,425.6z"/>
</svg>
